# xmcd CD database file
#
# Track frame offsets:
#	150
#	27207
#	63585
#	93097
#	122080
#
# Disc length: 1827 seconds
#
# Revision: 0
# Processed by: cddbd v1.5.2PL0 Copyright (c) Steve Scherf et al.
# Submitted via: CDex 1.70beta3
#
DISCID=38072105
DTITLE=Sonny Rollins - BlueNote best jazzcollection #3
DYEAR=2012
DGENRE=Jazz
TTITLE0=Asiatic Raes
TTITLE1=Decision
TTITLE2=The Surrey with The Fringe on Top
TTITLE3=You stepped out of a dream
TTITLE4=Namely you
EXTD=YEAR: 2012
EXTT0=
EXTT1=
EXTT2=
EXTT3=
EXTT4=
PLAYORDER=
